<?xml version="1.0" encoding="UTF-8"?> <svg xmlns="http://www.w3.org/2000/svg" id="Layer_1" data-name="Layer 1" viewBox="0 0 493.49 518.76"><defs><style>.cls-1{fill:#8a2f1d;}.cls-2{fill:none;stroke:#000;stroke-miterlimit:10;stroke-width:4px;}</style></defs><rect class="cls-1" width="493.49" height="518.76"></rect><path d="M154.3,116.05l36,49q-24.22,15.3-22.75,49.07,1.8,41.21,44,53,23.38,6.5,63.64-19.65l17.21-11.35q38.22-24.73,62.82-17.9,35.24,9.81,60.49,45.17t27.09,77.34q1,22.85-6.92,47.44l-35.22-43.64q16.36-16.89,15.2-43.44-1.37-31.12-29-38.81-19.74-5.49-56.49,18.41L311.16,292.8q-42,27.24-68.74,19.81Q204.16,302,173.33,259.26t-32.8-87.81Q139.12,139.47,154.3,116.05Z"></path><path d="M155,226.82l38.36,48Q170.6,291.69,174.16,326q4.34,41.83,46.41,51.57,23.3,5.38,61.09-23.36l16.14-12.46q35.86-27.21,60.39-21.54,35.1,8.12,62,42.79t31.35,77.3Q454,463.5,447.77,489l-37.21-42.57q15-18.06,12.17-45-3.27-31.62-30.82-38-19.68-4.54-54.17,21.73l-18.11,13.36q-39.44,30-66.07,23.79-38.13-8.81-71-50.65T145,284Q141.62,251.46,155,226.82Z"></path><path d="M62.62,73.59A28,28,0,0,0,82,81.33c3.42,0,6.66-1.17,6.66-3.51s-2.52-3.51-8.46-4.59c-9.9-1.8-25-4.14-25-19.17,0-10.17,8.46-19.44,24.93-19.44,9.81,0,18.63,2.79,25.47,8.37L95.83,55.86a29.88,29.88,0,0,0-16.74-5.94c-4.5,0-5.49,1.62-5.49,3.15,0,2.34,2.43,3.15,8.82,4.23C92.32,59,107,61.89,107,75.75,107,89,97.18,96.63,81.07,96.63c-12.78,0-21.5-3.78-27.9-9.54Z"></path><path d="M176.36,72.6h-21.5v23H136.68v-60h18.18V56.76h21.5V35.52h18.18v60H176.36Z"></path><path d="M266.05,87.81H243l-2.34,7.74H221l22.14-60H266l22.14,60H268.39ZM247.69,72.69h13.68l-6.84-21.15Z"></path><path d="M314.51,35.52h32c14,0,21.6,9.36,21.6,20.61s-7.56,20.16-21.6,20.16H332.69V95.55H314.51Zm29.7,15.12H332.69V61.17h11.52a5.27,5.27,0,1,0,0-10.53Z"></path><path d="M396.27,35.52h45.54V50.64H414.45v7h26.73V72.78H414.45v7.65h27.36V95.55H396.27Z"></path><path d="M48.56,142.67c0-18.53,14.22-31,32.58-31,16.2,0,24.12,9.18,27.72,17.46L93.2,136.37a12.86,12.86,0,0,0-12.06-8.72c-8.28,0-14.13,6.66-14.13,15s5.85,15,14.13,15A12.86,12.86,0,0,0,93.2,149l15.66,7.2c-3.51,8-11.52,17.55-27.72,17.55C62.78,173.72,48.56,161.12,48.56,142.67Z"></path><path d="M89.83,242.3h-23L64.45,250H44.74l22.14-60H89.74l22.14,60H92.17ZM71.47,227.18H85.15L78.31,206Z"></path><path d="M53.38,267.42h32c14,0,21.6,9.36,21.6,20.6s-7.56,20.16-21.6,20.16H71.56v19.26H53.38Zm29.7,15.12H71.56v10.52H83.08a5.26,5.26,0,1,0,0-10.52Z"></path><path d="M56.35,344.82h45.54v15.12H74.53v7h26.73v15.11H74.53v7.65h27.36v15.12H56.35Z"></path><path d="M77.41,463H70.84v19.26H52.66v-60h32c14,0,21.6,9.36,21.6,20.61,0,10.35-6,15.83-10.8,18.17l10.89,21.24H85.69Zm4.5-25.64H70.84v10.52H81.91c3.06,0,5.94-2,5.94-5.3S85,437.34,81.91,437.34Z"></path><rect class="cls-2" width="493.49" height="518.76"></rect></svg> 